<?xml version="1.0" standalone="no"?>
<!DOCTYPE svg PUBLIC "-//W3C//DTD SVG 20010904//EN"
 "http://www.w3.org/TR/2001/REC-SVG-20010904/DTD/svg10.dtd">
<svg version="1.0" xmlns="http://www.w3.org/2000/svg"
 width="512.000000pt" height="512.000000pt" viewBox="0 0 512.000000 512.000000"
 preserveAspectRatio="xMidYMid meet">
<metadata>
Created by potrace 1.11, written by Peter Selinger 2001-2013
</metadata>
<g transform="translate(0.000000,512.000000) scale(0.100000,-0.100000)"
fill="#000000" stroke="none">
<path d="M3090 3693 c-74 -12 -169 -54 -255 -114 -26 -18 -59 -30 -95 -34 -66
-8 -92 -11 -145 -20 -22 -3 -53 -7 -70 -9 -89 -12 -182 -28 -311 -55 -95 -20
-118 -25 -164 -35 -73 -17 -262 -71 -353 -102 -109 -36 -109 -36 -150 -19
-157 64 -207 79 -317 95 -61 8 -319 6 -390 -4 -115 -17 -241 -47 -295 -71 -17
-8 -52 -23 -79 -35 -105 -45 -230 -143 -301 -236 -81 -105 -140 -267 -115
-314 13 -24 -9 -21 195 -24 188 -3 257 -18 363 -78 53 -30 67 -44 33 -33 -26
8 -63 -28 -54 -52 4 -10 34 -63 66 -118 83 -139 172 -314 251 -490 37 -82 71
-159 76 -170 5 -11 43 -101 85 -200 188 -444 341 -650 610 -823 116 -75 344
-176 445 -197 8 -2 44 -10 80 -19 36 -8 88 -18 115 -22 28 -3 59 -8 70 -10
116 -23 386 -23 525 1 14 2 45 7 70 10 240 31 599 156 829 287 46 26 85 48 87
48 2 0 34 21 72 47 222 153 385 336 476 534 50 109 93 274 95 364 2 126 1 196
-3 225 -3 19 -7 58 -10 85 -3 28 -8 61 -11 75 -3 14 -7 39 -10 55 -5 30 -11
61 -20 100 -2 11 -9 46 -16 78 l-12 59 48 41 c150 129 297 296 391 447 40 65
98 200 97 230 0 8 3 20 7 25 14 19 7 139 -11 188 -43 116 -99 179 -209 230
-86 40 -211 46 -310 15 -36 -12 -67 -24 -70 -27 -3 -3 -22 -15 -43 -26 -21
-11 -46 -27 -56 -36 -28 -26 -273 -210 -355 -266 l-75 -52 -58 67 c-32 37 -86
95 -120 129 -35 35 -63 64 -63 66 0 2 89 2 197 1 126 -1 203 1 210 8 18 14 16
53 -2 68 -12 10 -80 14 -274 14 l-258 2 -59 31 c-33 17 -79 37 -104 44 -25 7
-52 14 -60 17 -21 6 -160 9 -190 5z m1670 -154 c106 -56 153 -140 149 -264 -2
-38 -5 -74 -8 -80 -3 -5 -6 -16 -8 -24 -9 -63 -115 -237 -215 -352 -69 -81
-228 -239 -239 -239 -10 0 -54 201 -74 340 -2 14 -7 50 -12 80 -12 89 -9 452
4 476 15 26 119 82 175 94 78 16 161 5 228 -31z m-2088 -116 c-25 -34 -76 -82
-119 -112 -70 -48 -233 -117 -324 -137 -13 -3 -37 -8 -54 -12 -16 -4 -75 -6
-130 -6 -87 1 -114 5 -200 35 -55 19 -103 38 -105 44 -3 5 15 15 40 22 43 13
344 93 365 97 6 1 24 5 40 9 17 4 41 9 55 11 14 3 50 9 80 15 62 12 98 18 155
26 22 4 47 8 55 10 8 2 42 7 75 11 33 3 62 8 64 10 2 2 8 4 13 4 5 0 0 -12
-10 -27z"/>
</g>
</svg>
